<?xml version="1.0" encoding="UTF-8"?>
<svg id="Layer_1" data-name="Layer 1" xmlns="http://www.w3.org/2000/svg" viewBox="0 0 202.18 52.02">
  <defs>
    <style>
      .cls-1 {
        fill: #0e1329;
      }

      .cls-2 {
        fill: #e8f6fe;
      }

      .cls-3 {
        fill: #407ec0;
      }
    </style>
  </defs>
  <g>
    <path class="cls-1" d="M60.66,31.67V6.79h9.99c2.75,0,4.8.59,6.17,1.76s2.04,2.71,2.04,4.6c0,1.37-.3,2.46-.91,3.27-.6.81-1.38,1.46-2.33,1.96.66.28,1.33.74,1.99,1.37.66.63,1.23,1.37,1.69,2.22.46.85.69,1.76.69,2.74,0,1.28-.34,2.45-1.01,3.5s-1.64,1.9-2.9,2.52c-1.26.63-2.74.94-4.44.94h-10.98ZM66.27,16.43h3.87c1.11,0,1.88-.18,2.31-.55s.64-1,.64-1.9c0-.81-.2-1.4-.6-1.79-.4-.39-1.2-.59-2.38-.59h-3.84v4.83ZM66.27,26.88h5.3c1.04,0,1.76-.25,2.15-.76.39-.51.59-1.19.59-2.04s-.2-1.5-.59-2.01c-.39-.51-1.13-.76-2.22-.76h-5.23v5.58Z"/>
    <path class="cls-1" d="M81.95,31.67V14.04h5.47v2.74c.62-.9,1.4-1.65,2.35-2.26.95-.6,2.04-.91,3.27-.91v5.79h-1.53c-1.38,0-2.4.31-3.07.92s-1.01,1.64-1.01,3.06v8.28h-5.47Z"/>
    <path class="cls-1" d="M97.23,12.48c-.92,0-1.72-.33-2.38-.99-.66-.66-.99-1.46-.99-2.38s.33-1.72.99-2.38c.66-.66,1.46-.99,2.38-.99.97,0,1.78.33,2.42.99.64.66.96,1.46.96,2.38s-.32,1.72-.96,2.38c-.64.66-1.45.99-2.42.99ZM94.49,31.67V14.04h5.47v17.63h-5.47Z"/>
    <path class="cls-1" d="M109.7,39.92c-1.61,0-3.06-.18-4.34-.53s-2.29-.93-3.04-1.72-1.12-1.83-1.12-3.11c0-.83.18-1.55.53-2.15s.9-1.13,1.64-1.58c-.62-.36-1.08-.81-1.39-1.35-.31-.54-.46-1.17-.46-1.88,0-1.56.71-2.75,2.13-3.55-.52-.55-.91-1.16-1.17-1.83-.26-.67-.39-1.4-.39-2.19,0-1.3.31-2.43.94-3.39.63-.96,1.5-1.7,2.61-2.22,1.11-.52,2.38-.78,3.8-.78,1.07,0,2.03.14,2.88.43h6.33v3.66h-2.24c.12.33.22.69.3,1.08.08.39.12.8.12,1.23,0,1.28-.33,2.4-.98,3.36-.65.96-1.53,1.71-2.65,2.24-1.11.53-2.37.8-3.77.8-.52,0-1.01-.04-1.48-.12-.46-.08-.91-.21-1.33-.37-.4.19-.6.5-.6.92,0,.76.62,1.14,1.85,1.14h3.63c1.42,0,2.65.2,3.7.6s1.85,1.02,2.42,1.85c.57.83.85,1.91.85,3.23,0,1.42-.41,2.59-1.22,3.52-.82.92-1.9,1.61-3.24,2.06-1.34.45-2.78.68-4.32.68ZM109.84,35.9c.97,0,1.81-.15,2.52-.46.71-.31,1.07-.79,1.07-1.46,0-1.21-.83-1.81-2.49-1.81h-2.2c-.81,0-1.42.15-1.85.44s-.64.75-.64,1.37c0,.47.17.85.5,1.14.33.28.77.48,1.32.6.54.12,1.14.18,1.78.18ZM109.45,22.43c.78,0,1.42-.22,1.92-.68.5-.45.75-1.03.75-1.74s-.25-1.26-.75-1.72c-.5-.46-1.14-.69-1.92-.69s-1.44.23-1.92.69c-.47.46-.71,1.04-.71,1.72s.24,1.29.71,1.74c.47.45,1.11.68,1.92.68Z"/>
    <path class="cls-1" d="M120.05,31.67V6.79h5.47v9.38c.64-.9,1.4-1.55,2.27-1.96.88-.4,1.86-.6,2.95-.6,2.2,0,3.87.71,5.01,2.12,1.14,1.41,1.71,3.24,1.71,5.49v10.45h-5.44v-9.77c0-1.11-.27-2.01-.82-2.68-.55-.68-1.36-1.01-2.45-1.01s-1.87.35-2.42,1.05c-.55.7-.82,1.58-.82,2.65v9.77h-5.47Z"/>
    <path class="cls-1" d="M146.45,31.67c-2.08,0-3.65-.51-4.71-1.53-1.05-1.02-1.58-2.58-1.58-4.69v-6.9h-1.85v-4.51h1.85v-4.37h5.47v4.37h3.59v4.51h-3.59v6.97c0,.59.12.99.37,1.19s.67.3,1.26.3h1.95v4.66h-2.77Z"/>
    <path class="cls-1" d="M151.57,31.67V6.79h9.88c1.71,0,3.25.31,4.62.92s2.46,1.5,3.25,2.67,1.19,2.55,1.19,4.16-.38,2.97-1.16,4.14c-.77,1.17-1.84,2.08-3.2,2.72-1.36.64-2.93.96-4.71.96h-4.26v9.31h-5.62ZM157.19,17.56h4.12c1.33,0,2.24-.3,2.76-.91.51-.6.76-1.31.76-2.12,0-.76-.25-1.44-.76-2.04-.51-.6-1.43-.91-2.76-.91h-4.12v5.97Z"/>
    <path class="cls-1" d="M171.62,31.67V14.04h5.47v2.74c.62-.9,1.4-1.65,2.35-2.26.95-.6,2.04-.91,3.27-.91v5.79h-1.53c-1.38,0-2.4.31-3.07.92s-1.01,1.64-1.01,3.06v8.28h-5.47Z"/>
    <path class="cls-1" d="M192.73,32.1c-1.71,0-3.26-.36-4.67-1.08-1.41-.72-2.54-1.77-3.38-3.15-.84-1.37-1.26-3.04-1.26-5.01s.41-3.49,1.23-4.87c.82-1.37,1.94-2.45,3.36-3.22,1.42-.77,3.02-1.16,4.8-1.16,1.9,0,3.54.4,4.94,1.19s2.49,1.88,3.27,3.27c.78,1.39,1.17,2.98,1.17,4.78s-.42,3.5-1.24,4.89c-.83,1.39-1.95,2.46-3.38,3.22-1.42.76-3.03,1.14-4.83,1.14ZM192.77,27.34c.78,0,1.46-.19,2.03-.57.57-.38,1.01-.91,1.33-1.6s.48-1.47.48-2.35c0-.97-.17-1.78-.51-2.44-.34-.65-.81-1.14-1.39-1.48-.58-.33-1.23-.5-1.94-.5s-1.39.18-1.97.53c-.58.36-1.04.86-1.37,1.53-.33.66-.5,1.46-.5,2.38,0,.88.16,1.65.48,2.33s.77,1.2,1.33,1.58,1.24.57,2.03.57Z"/>
  </g>
  <g>
    <path class="cls-1" d="M122.6,45.42v-10.23h1.67v10.23h-1.67Z"/>
    <path class="cls-1" d="M128.62,45.42v-8.83h-3.01v-1.4h7.67v1.4h-3.01v8.83h-1.65Z"/>
    <path class="cls-1" d="M141.59,45.6c-.7,0-1.34-.12-1.91-.37-.58-.25-1.03-.61-1.37-1.1-.34-.48-.51-1.08-.52-1.79h1.74c0,.55.2.99.57,1.34.37.35.86.52,1.48.52.55,0,.98-.13,1.31-.38.33-.25.5-.61.5-1.07,0-.26-.04-.48-.13-.67-.09-.18-.23-.34-.44-.48-.2-.14-.48-.28-.82-.41-.34-.13-.78-.28-1.3-.46-.61-.2-1.12-.44-1.51-.71-.39-.27-.67-.58-.85-.94-.18-.35-.27-.75-.27-1.19,0-.62.15-1.15.45-1.58.3-.43.7-.75,1.21-.97.51-.22,1.08-.33,1.7-.33s1.2.11,1.71.34c.51.22.92.55,1.23.99.31.43.47.96.48,1.59h-1.77c0-.42-.15-.78-.47-1.07s-.73-.44-1.24-.44c-.44,0-.81.1-1.12.34-.31.23-.46.57-.46,1.02,0,.31.1.57.3.78.2.2.48.38.85.54.37.16.82.33,1.34.51.32.11.65.23.99.38.34.15.64.33.92.56s.5.51.68.85c.18.34.26.75.26,1.25,0,.61-.16,1.14-.47,1.59-.32.44-.74.78-1.28,1.02-.54.23-1.14.35-1.8.35Z"/>
    <path class="cls-1" d="M149.89,45.6c-.71,0-1.35-.16-1.91-.47-.57-.31-1.01-.75-1.34-1.32s-.49-1.24-.49-2.01.17-1.47.51-2.03c.34-.56.8-1,1.37-1.31.58-.31,1.21-.46,1.91-.46s1.35.15,1.92.46,1.02.74,1.36,1.31c.34.57.5,1.24.5,2.03,0,.73-.16,1.38-.49,1.96-.33.58-.78,1.03-1.36,1.35-.58.33-1.25.49-1.99.49ZM149.9,44.17c.42,0,.79-.1,1.1-.31.32-.21.57-.49.75-.85.19-.36.28-.77.28-1.23s-.09-.89-.28-1.24c-.19-.35-.44-.62-.75-.81-.32-.19-.68-.28-1.09-.28-.43,0-.8.1-1.12.31-.32.21-.56.48-.72.84-.17.36-.25.76-.25,1.22,0,.5.09.92.28,1.28.19.36.44.63.76.81s.66.28,1.03.28Z"/>
    <path class="cls-1" d="M154.97,45.42v-10.23h1.65v10.23h-1.65Z"/>
    <path class="cls-1" d="M160.97,45.6c-.6,0-1.12-.13-1.56-.38-.43-.25-.77-.62-1-1.09s-.35-1.03-.35-1.67v-4.28h1.65v4.05c0,.6.14,1.08.43,1.44.29.36.71.53,1.28.53s1.02-.19,1.34-.56c.32-.37.48-.88.48-1.53v-3.93h1.65v7.25h-1.61l-.03-.99c-.24.37-.57.66-.98.86-.41.21-.85.31-1.31.31Z"/>
    <path class="cls-1" d="M169.3,45.42c-.74,0-1.31-.18-1.69-.54-.39-.36-.58-.94-.58-1.72v-3.6h-1.04v-1.39h1.04v-1.75h1.67v1.75h1.77v1.39h-1.77v3.61c0,.34.08.57.23.69s.39.17.7.17h.83v1.39h-1.15Z"/>
    <path class="cls-1" d="M172.67,37.02c-.3,0-.56-.11-.77-.32-.22-.21-.32-.47-.32-.77s.11-.56.32-.77c.21-.21.47-.31.77-.31s.56.1.78.31.32.47.32.77-.11.56-.32.77-.47.32-.78.32ZM171.84,45.42v-7.25h1.67v7.25h-1.67Z"/>
    <path class="cls-1" d="M178.6,45.6c-.71,0-1.35-.16-1.91-.47-.57-.31-1.01-.75-1.34-1.32s-.49-1.24-.49-2.01.17-1.47.51-2.03c.34-.56.8-1,1.37-1.31.58-.31,1.21-.46,1.91-.46s1.35.15,1.92.46,1.02.74,1.36,1.31c.34.57.5,1.24.5,2.03,0,.73-.16,1.38-.49,1.96-.33.58-.78,1.03-1.36,1.35-.58.33-1.25.49-1.99.49ZM178.62,44.17c.42,0,.79-.1,1.1-.31.32-.21.57-.49.75-.85.19-.36.28-.77.28-1.23s-.09-.89-.28-1.24c-.19-.35-.44-.62-.75-.81-.32-.19-.68-.28-1.09-.28-.43,0-.8.1-1.12.31-.32.21-.56.48-.72.84-.17.36-.25.76-.25,1.22,0,.5.09.92.28,1.28.19.36.44.63.76.81s.66.28,1.03.28Z"/>
    <path class="cls-1" d="M183.73,45.42v-7.25h1.61l.03.99c.24-.38.58-.67,1.01-.87.43-.2.88-.3,1.34-.3.85,0,1.53.27,2.06.8.53.54.79,1.33.79,2.37v4.25h-1.64v-4.05c0-.61-.15-1.1-.44-1.45-.29-.35-.72-.52-1.29-.52s-1.01.19-1.34.56c-.33.37-.49.88-.49,1.53v3.93h-1.65Z"/>
    <path class="cls-1" d="M194.91,45.6c-.56,0-1.07-.1-1.54-.3-.47-.2-.86-.48-1.15-.85-.3-.37-.47-.8-.5-1.3h1.67c.06.34.23.62.5.83.28.21.62.31,1.02.31.36,0,.66-.08.9-.23s.36-.37.36-.64c0-.23-.08-.42-.25-.55-.17-.13-.37-.23-.61-.31-.24-.07-.5-.14-.76-.2-.46-.11-.89-.24-1.28-.39-.39-.16-.71-.37-.96-.66-.24-.28-.37-.65-.37-1.11s.13-.85.38-1.18.59-.58,1.02-.75c.42-.17.9-.26,1.42-.26.8,0,1.46.2,2,.6.53.4.83.98.88,1.75h-1.58c-.04-.33-.18-.59-.42-.76s-.55-.26-.93-.26c-.33,0-.61.06-.83.19-.22.13-.33.33-.33.61,0,.2.08.36.24.48.16.13.37.23.61.32s.49.15.74.21c.5.12.94.25,1.33.41.39.16.7.38.93.66.23.28.35.67.36,1.15,0,.47-.13.87-.38,1.2s-.59.59-1.02.77c-.43.18-.91.27-1.45.27Z"/>
  </g>
  <rect class="cls-2" width="52.02" height="52.02" rx="9.74" ry="9.74"/>
  <path class="cls-3" d="M37.84,47.56l-.75.26c-2.74.21-5.24-.8-5.97-3.65-.52-2.03.28-4.16,2.3-5.45l-2.13-6.16c-2.84.4-5.21-.73-6.72-3.14l-5.95,2.05c.27,2.74-1.49,4.89-3.84,5.37s-4.77-.93-5.54-3.11c-.85-2.44.32-5.03,2.56-6.03s4.8-.26,6.24,2l5.79-1.99.14-3.19-5.09-2.46c-1.52,1.63-3.54,1.63-5.03.58s-1.95-3.12-1.13-4.71c.86-1.68,2.78-2.44,4.54-1.84s2.74,2.32,2.49,4.31l5.07,2.45c1.72-2.31,4.22-3.25,6.99-2.59l3.53-7.21c-1.99-1.72-2.56-4.29-1.35-6.41s3.84-3,6.03-2.1c2.4.99,3.51,3.56,2.83,5.84-.74,2.47-3.08,3.86-5.79,3.4l-3.51,7.13c1.84,1.59,3.11,3.5,2.81,6.19-.2,1.84-1.4,3.74-3.31,4.9l2.14,6.14c2.38-.17,4.39,1.09,5.14,3.14,1,2.71-.37,4.77-2.5,6.29ZM28.07,22.48c-2.35,1.25-2.94,4.05-1.73,6.09s3.77,2.76,5.88,1.61,2.94-3.76,1.72-5.96c-1.06-1.92-3.6-2.96-5.87-1.74Z"/>
</svg>